<?xml version="1.0" ?>
<!-- Uploaded to: SVG Repo, www.svgrepo.com, Generator: SVG Repo Mixer Tools -->
<svg width="800px" height="800px" viewBox="0 0 96 96" version="1.1" xml:space="preserve" xmlns="http://www.w3.org/2000/svg" xmlns:xlink="http://www.w3.org/1999/xlink">
<style type="text/css">
	.st0{display:none;}
	.st1{fill:#FFFFFF;}
	.st2{fill:none;stroke:#000000;stroke-width:2;stroke-linecap:round;stroke-linejoin:round;stroke-miterlimit:10;}
	.st3{fill:#FFF8FA;}
	.st4{stroke:#000000;stroke-width:2;stroke-miterlimit:10;}
	.st5{fill:none;stroke:#000000;stroke-miterlimit:10;}
	.st6{fill:none;stroke:#000000;stroke-width:2;stroke-linecap:round;stroke-miterlimit:10;}
	.st7{fill:#231F20;stroke:#000000;stroke-width:0;stroke-miterlimit:10;}
	.st8{fill:#FF0D5C;}
	.st9{display:inline;}
	.st10{fill:none;stroke:#00D8E9;stroke-width:0.25;stroke-linecap:round;stroke-linejoin:round;stroke-miterlimit:10;}
	.st11{fill:none;stroke:#00D8E9;stroke-width:0.25;stroke-linejoin:round;stroke-miterlimit:10;}
	.st12{fill:none;stroke:#00D8E9;stroke-linecap:round;stroke-linejoin:round;stroke-miterlimit:10;}
	.st13{fill:none;stroke:#00D8E9;stroke-linejoin:round;stroke-miterlimit:10;}
</style>
<g id="banana"/>
<g id="Layer_12"/>
<g id="grape"/>
<g id="assasin"/>
<g id="gold"/>
<g id="mage_ass"/>
<g id="fighter"/>
<g id="SUPPORT"/>
<g id="marksman"/>
<g id="JUNGLE"/>
<g id="TANK"/>
<g class="st0" id="creditcard"/>
<g class="st0" id="CAKE"/>
<g class="st0" id="TOPI"/>
<g class="st0" id="SPATU"/>
<g class="st0" id="SETTING"/>
<g class="st0" id="CART"/>
<g class="st0" id="k3"/>
<g class="st0" id="computer"/>
<g class="st0" id="phone"/>
<g class="st0" id="location"/>
<g id="koper">
<g id="Layer_29"/>
<path d="M26.5,51.4C26.5,51.4,26.5,51.4,26.5,51.4c-0.2,0-0.4-0.1-0.6,0L14,53.5c0.5-3.6,4.4-6.8,9.6-7.7l6.8-1.1   c5.3-0.8,10.7,0.8,13.5,3.9l-13.1,2.1c0,0,0,0,0,0c-0.2,0-0.3,0-0.5,0c-0.5,0.2-0.8,0.7-0.7,1.3l6.9,22.5l-1.7,0L27.8,52   C27.6,51.5,27,51.2,26.5,51.4z M69.9,34c-0.4,0-0.8,0.2-1,0.6c-0.2,0.4-0.1,0.9,0.3,1.1c2.9,2.5,5.9,5.7,7.4,7.9l-9.4-6.2l0,0   c-0.3-0.2-0.7-0.3-1-0.1c-0.9,0.4-0.9,0.5-0.1,7.4c1.1,9.5,3.2,27.1,0.8,35.3c-2.4-0.2-4.9-0.5-7.6-0.9c4.9-5.1,4.3-17.3,3.6-29.2   c-0.3-4.6-0.5-8.9-0.4-12.7c0-0.3-0.1-0.6-0.4-0.8s-0.6-0.2-0.9-0.1c-1.5,0.5-2.4,1-3.4,1.9c-0.1,0.1-0.1,0.1-0.2,0.2   c-0.1,0.1-0.1,0.1-0.2,0.2c-0.4,0.3-1.3,1.1-2.3,2.1c0.6-3.1,0.9-5,0.9-5c0-0.3,0-0.6-0.2-0.8c-0.2-0.2-0.5-0.3-0.8-0.3   c-0.2,0-2.8,0.2-5.4,1.2l3.9-6c0.2-0.3,0.2-0.7,0.1-1c-0.2-0.3-0.5-0.5-0.8-0.5c-0.2,0-3.6-0.2-6.5-0.2c5.7-3.7,12.6-2.5,12.7-2.5   c0.4,0.1,0.8-0.1,1-0.4c0.2-0.3,0.2-0.8,0-1.1c-0.1-0.2-2.8-4.4-5.3-7.1c6.4,0.6,7.9,7.3,8,7.6c0.1,0.4,0.4,0.7,0.8,0.8   c0.4,0.1,0.8-0.1,1-0.5c1.4-2.6,4.2-6.4,6.7-7.9l-3.7,8.7c-0.2,0.4-0.1,0.8,0.2,1.1c0.3,0.3,0.7,0.4,1,0.3   c3.3-1.1,8.9-2.3,11.6-1.9c-8.5,2.3-10.2,6.2-10.2,6.4c-0.1,0.3-0.1,0.7,0.2,1c0.2,0.3,0.6,0.4,1,0.3c0.1,0,5.9-1.3,9.7,2.3   L69.9,34z"/>
</g>
<g class="st0" id="guide"/>
<g id="MAGICAL"/>
<g id="phisical"/>
<g id="mango"/>
<g id="orange"/>
</svg>