<?xml version="1.0" ?>
<!-- Uploaded to: SVG Repo, www.svgrepo.com, Generator: SVG Repo Mixer Tools -->
<svg width="800px" height="800px" viewBox="0 0 96 96" version="1.1" xml:space="preserve" xmlns="http://www.w3.org/2000/svg" xmlns:xlink="http://www.w3.org/1999/xlink">
<style type="text/css">
	.st0{display:none;}
	.st1{fill:#FFFFFF;}
	.st2{fill:none;stroke:#000000;stroke-width:2;stroke-linecap:round;stroke-linejoin:round;stroke-miterlimit:10;}
	.st3{fill:#FFF8FA;}
	.st4{stroke:#000000;stroke-width:2;stroke-miterlimit:10;}
	.st5{fill:none;stroke:#000000;stroke-miterlimit:10;}
	.st6{fill:none;stroke:#000000;stroke-width:2;stroke-linecap:round;stroke-miterlimit:10;}
	.st7{fill:#231F20;stroke:#000000;stroke-width:0;stroke-miterlimit:10;}
	.st8{fill:#FF0D5C;}
	.st9{display:inline;}
	.st10{fill:none;stroke:#00D8E9;stroke-width:0.25;stroke-linecap:round;stroke-linejoin:round;stroke-miterlimit:10;}
	.st11{fill:none;stroke:#00D8E9;stroke-width:0.25;stroke-linejoin:round;stroke-miterlimit:10;}
	.st12{fill:none;stroke:#00D8E9;stroke-linecap:round;stroke-linejoin:round;stroke-miterlimit:10;}
	.st13{fill:none;stroke:#00D8E9;stroke-linejoin:round;stroke-miterlimit:10;}
</style>
<g id="banana"/>
<g id="Layer_12"/>
<g id="grape"/>
<g id="assasin"/>
<g id="gold"/>
<g id="mage_ass"/>
<g id="fighter"/>
<g id="SUPPORT"/>
<g id="marksman"/>
<g id="JUNGLE"/>
<g id="TANK"/>
<g class="st0" id="creditcard"/>
<g class="st0" id="CAKE"/>
<g class="st0" id="TOPI"/>
<g class="st0" id="SPATU"/>
<g class="st0" id="SETTING"/>
<g class="st0" id="CART"/>
<g class="st0" id="k3"/>
<g class="st0" id="computer"/>
<g class="st0" id="phone"/>
<g class="st0" id="location"/>
<g id="koper">
<g id="Layer_29"/>
<path d="M14.1,68.1c0.3,1.7,1.8,3,3.6,3h60.6c1.8,0,3.3-1.3,3.6-3H14.1z"/>
<g>
<path d="M39.9,37.5h1v-8l-1,0L39.9,37.5z"/>
<path d="M54.1,37.5h1v-8l-1,0L54.1,37.5z"/>
<path d="M47,37.1h1v-8l-1,0L47,37.1z"/>
<path d="M40.4,27.3c-0.1,0.3-0.3,0.8-0.3,1.2c0,0.5,0.1,0.8,0.3,1.1c0.1-0.3,0.3-0.6,0.3-1.1C40.7,28.1,40.6,27.6,40.4,27.3z"/>
<path d="M54.6,27.3c-0.1,0.3-0.3,0.8-0.3,1.2c0,0.5,0.1,0.8,0.3,1.1c0.1-0.3,0.3-0.6,0.3-1.1C54.9,28.1,54.8,27.7,54.6,27.3z"/>
<path d="M47.5,26.2c-0.1,0.4-0.3,0.9-0.3,1.5c0,0.5,0.1,1,0.3,1.3c0.1-0.3,0.3-0.8,0.3-1.3C47.8,27.1,47.6,26.6,47.5,26.2z"/>
</g>
<g>
<path d="M34.3,45c0.4-0.2,1.1-0.8,1.7-1.3c1.9-1.7,5.2-4.6,8.3-1.9c0.5,0.4,0.9,0.8,1.4,1.2c2.9,2.7,5.1,4.8,9.7,1    c4.5-3.7,10-0.7,12.7,1.1v-5.6c0-1.4-1.5-2.5-3.2-2.5H31.2c-1.8,0-3.2,1.1-3.2,2.5v3.6C30.4,44.4,33.4,45.4,34.3,45z"/>
<path d="M56.6,45.5c-5.9,4.9-9.5,1.6-12.3-1.1c-0.4-0.4-0.9-0.8-1.3-1.2c-1.7-1.4-3.4-0.1-5.6,1.9c-0.8,0.8-1.6,1.4-2.3,1.7    c-1.7,0.7-5.2-0.6-7.1-1.4v4.7h40v-2.4C66.9,46.8,60.8,42.1,56.6,45.5z"/>
</g>
<g>
<path d="M69.4,62.5c-0.8,0.7-1.6,0.9-2.6,0.9c-2.3,0-5.1-1.7-7.6-3.2c-1.9-1.1-3.9-2.3-5.1-2.4c-3.8-0.3-8.5,3.5-9,4.2    c-0.2,0.2-1.1,1.4-3.4,1.3c-2.3,0-5-1.3-8.2-3.6c-6.1-4.4-10.9,0-11.4,0.5v5.7h52v-6.4C72.9,60.2,71.3,61.2,69.4,62.5z"/>
<path d="M34.6,58.2c6.8,4.9,8.9,2.7,8.9,2.7c0.6-0.8,5.9-5.4,10.8-5c1.7,0.1,3.8,1.4,6,2.7c3,1.8,6.3,3.8,7.9,2.4    c2.7-1.9,4.9-3.1,5.8-3.6v-3.4c0-1.1-1.5-2-3.2-2H25.2c-1.7,0-3.2,0.9-3.2,2v3.8C24.3,56.3,29.1,54.2,34.6,58.2z"/>
</g>
</g>
<g class="st0" id="guide"/>
<g id="MAGICAL"/>
<g id="phisical"/>
<g id="mango"/>
<g id="orange"/>
</svg>