<?xml version="1.0" ?>
<!-- Uploaded to: SVG Repo, www.svgrepo.com, Generator: SVG Repo Mixer Tools -->
<svg width="800px" height="800px" viewBox="0 0 96 96" version="1.1" xml:space="preserve" xmlns="http://www.w3.org/2000/svg" xmlns:xlink="http://www.w3.org/1999/xlink">
<style type="text/css">
	.st0{display:none;}
	.st1{fill:#FFFFFF;}
	.st2{fill:none;stroke:#000000;stroke-width:2;stroke-linecap:round;stroke-linejoin:round;stroke-miterlimit:10;}
	.st3{fill:#FFF8FA;}
	.st4{stroke:#000000;stroke-width:2;stroke-miterlimit:10;}
	.st5{fill:none;stroke:#000000;stroke-miterlimit:10;}
	.st6{fill:none;stroke:#000000;stroke-width:2;stroke-linecap:round;stroke-miterlimit:10;}
	.st7{fill:#231F20;stroke:#000000;stroke-width:0;stroke-miterlimit:10;}
	.st8{fill:#FF0D5C;}
	.st9{display:inline;}
	.st10{fill:none;stroke:#00D8E9;stroke-width:0.25;stroke-linecap:round;stroke-linejoin:round;stroke-miterlimit:10;}
	.st11{fill:none;stroke:#00D8E9;stroke-width:0.25;stroke-linejoin:round;stroke-miterlimit:10;}
	.st12{fill:none;stroke:#00D8E9;stroke-linecap:round;stroke-linejoin:round;stroke-miterlimit:10;}
	.st13{fill:none;stroke:#00D8E9;stroke-linejoin:round;stroke-miterlimit:10;}
</style>
<g id="banana"/>
<g id="Layer_12"/>
<g id="grape"/>
<g id="assasin"/>
<g id="gold"/>
<g id="mage_ass"/>
<g id="fighter"/>
<g id="SUPPORT"/>
<g id="marksman"/>
<g id="JUNGLE"/>
<g id="TANK"/>
<g class="st0" id="creditcard"/>
<g class="st0" id="CAKE"/>
<g class="st0" id="TOPI"/>
<g class="st0" id="SPATU"/>
<g class="st0" id="SETTING"/>
<g class="st0" id="CART"/>
<g class="st0" id="k3"/>
<g class="st0" id="computer"/>
<g class="st0" id="phone"/>
<g class="st0" id="location"/>
<g id="koper">
<g id="Layer_29"/>
<g>
<path d="M21,42.5c-0.3-0.7-0.4-1.4-0.4-2.1"/>
<path d="M44.7,74.4l11.8-8.1c0.3-0.2,0.4-0.5,0.4-0.8l0-5.2c0-0.4-0.2-0.7-0.5-0.9c-0.3-0.2-0.7-0.2-1,0L48.1,64l0-15.4    c0-1.7-1.4-3.1-3.1-3.1c0,0,0,0,0,0l-1.9,0c-1.7,0-3.1,1.4-3.1,3.1c0,0,0,0,0,0L40,64l-7-4.5c-0.3-0.2-0.7-0.2-1,0    c-0.3,0.2-0.5,0.5-0.5,0.9l0,5.4c0,0.3,0.2,0.6,0.4,0.8l11.7,7.9"/>
<path d="M68.5,38.2c0.2-0.6,0.3-1.1,0.3-1.7c0-4-4.3-7.3-9.5-7.3c-1.3,0-2.6,0.2-3.7,0.6c0-0.1,0-0.2,0-0.3c0-4-4.3-7.3-9.5-7.3    c-4.8,0-8.7,2.7-9.4,6.3c-1.7-0.6-3.6-0.9-5.6-0.9c-7.2,0-13,4.5-13,9.9c0,0.6,0.1,1.2,0.2,1.8c-3.9,1.2-8.5,3-8.5,7.5v1.3    c0,6.8,8.6,6.8,13.2,6.8h13.3H40l0-6.2c0,0,0,0,0,0c0-1.7,1.4-3.1,3.1-3.1l1.9,0c0,0,0,0,0,0c1.7,0,3.1,1.4,3.1,3.1l0,6.2h19.3    c6.5,0,13.3-0.5,13.3-6.8v-1.3C80.8,41.4,76.3,38.3,68.5,38.2z"/>
</g>
</g>
<g class="st0" id="guide"/>
<g id="MAGICAL"/>
<g id="phisical"/>
<g id="mango"/>
<g id="orange"/>
</svg>