<?xml version="1.0" encoding="utf-8"?>
<!-- Uploaded to: SVG Repo, www.svgrepo.com, Generator: SVG Repo Mixer Tools -->
<svg fill="#000000" version="1.1" id="Layer_1" xmlns="http://www.w3.org/2000/svg" xmlns:xlink="http://www.w3.org/1999/xlink" 
	 width="800px" height="800px" viewBox="0 0 260 240" enable-background="new 0 0 260 240" xml:space="preserve">
<path d="M257.229,117.41l-4.888-11.82L239.54,90.716l-5.631-17.505l-13.546-8.606l-5.605-31.236l-8.844-3.081l-7.49-28.262
	l-8.234,12.616l-7.437,35.434l-5.844,1.567l-31.05-20.904l3.107-11.794l7.65-7.012L134.037,7.02l-22.949,5.631l-10.97,18.141
	l-16.362-7.039L66.6,33.976l-1.263,10.743l-9.338,2.914l-9.084,21.462L2.663,91.034L2,110.478l6.959,9.376l-3.533,5.525
	l16.379,33.043l-1.195,19.124l12.36,4.223l18.859-10.518l21.01-1.966l3.054-6.135l12.06-7.224l30.227-6.694l16.229,5.313
	l8.181,11.846l19.31,6.136l6.853,18.3l21.063,13.494l8.818-6.269l10.305,6.428l18.621-6.162l15.405-31.714l4.675-2.365L258,139.987
	L257.229,117.41z M199.777,237.973l11.98-1.939l3.48-13.52l-18.912-3.931L199.777,237.973z"/>
</svg>