<?xml version="1.0" encoding="utf-8"?>
<!-- Uploaded to: SVG Repo, www.svgrepo.com, Generator: SVG Repo Mixer Tools -->
<svg fill="#000000" version="1.1" id="Layer_1" xmlns="http://www.w3.org/2000/svg" xmlns:xlink="http://www.w3.org/1999/xlink" 
	 width="800px" height="800px" viewBox="0 0 209 260" enable-background="new 0 0 209 260" xml:space="preserve">
<polygon points="205.665,208.595 201.583,183.186 196.166,173.347 194.884,154.559 185.359,133.31 167.512,155.762 160.211,170.521 
	147.755,162.252 140.428,139.617 147.729,121.142 182.951,100.705 191.089,68.257 179.131,63.233 154.376,65.876 105.678,65.431 
	80.792,53.21 81.498,24.531 61.271,24.426 51.719,17.753 47.951,5.768 37.615,12.807 22.621,2 9.458,16.994 5.376,28.168 
	25.107,48.16 35.731,48.186 44.576,57.894 41.148,64.306 20.58,63.939 2.184,89.217 7.26,96.544 33.35,111.617 32.46,124.413 
	24.583,137.654 30.942,154.951 42.901,160.342 37.824,170.913 48.108,210.322 49.207,226.52 65.51,228.273 81.237,225.421 
	84.246,203.806 86.654,217.859 97.958,227.357 117.218,202.472 109.76,166.988 116.685,151.772 117.662,165.156 132.473,189.78 
	143.621,191.272 154.899,179.47 164.895,191.481 173.191,211.945 178.319,245.021 182.69,258 194.727,242.98 206.816,241.148 "/>
</svg>