<?xml version="1.0" encoding="utf-8"?>
<!-- Uploaded to: SVG Repo, www.svgrepo.com, Generator: SVG Repo Mixer Tools -->
<svg fill="#000000" version="1.1" id="Layer_1" xmlns="http://www.w3.org/2000/svg" xmlns:xlink="http://www.w3.org/1999/xlink" 
	 width="800px" height="800px" viewBox="0 0 260 169" enable-background="new 0 0 260 169" xml:space="preserve">
<polygon points="251.32,102.84 231.379,106.967 226.45,111.846 224.474,125.883 217.343,135.365 209.187,133.939 194.5,139.042 
	179.239,134.715 160.274,102.514 158.449,81.473 162.002,69.964 147.489,64.335 133.428,39.541 126.297,33.66 116.84,34.061 
	111.786,40.817 101.803,34.862 97.975,25.43 86.016,15.045 72.48,14.645 66.3,18.599 49.963,17.773 20.364,4.337 2,2.01 
	10.682,29.433 23.242,42.868 23.611,48.786 18.588,54.051 35.148,65.727 36.902,77.62 52.064,90.881 49.587,78.896 42.832,60.832 
	26.219,34.136 19.564,26.229 18.888,9.816 33.425,18.224 39.229,39.064 63.048,65.186 62.898,65.41 63.766,70.309 91.395,101.488 
	95.873,110.995 95.023,118.501 91.42,121.079 101.128,132.838 132.702,150.126 173.709,164.012 188.896,156.132 207.886,166.99 
	217.669,157.982 229.828,154.329 219.595,146.549 223.248,141.044 240.011,138.318 245.59,132.663 252.246,132.813 253.226,119.389 
	258,108.394 "/>
</svg>