<?xml version="1.0" encoding="utf-8"?>
<!-- Uploaded to: SVG Repo, www.svgrepo.com, Generator: SVG Repo Mixer Tools -->
<svg fill="#000000" version="1.1" id="Layer_1" xmlns="http://www.w3.org/2000/svg" xmlns:xlink="http://www.w3.org/1999/xlink" 
	 width="800px" height="800px" viewBox="0 0 224 260" enable-background="new 0 0 224 260" xml:space="preserve">
<path d="M81.566,51.225v-6.34l7.954-12.45l2.536,4.15v7.147L81.566,51.225z M107.273,17.678v-2.536l21.442-8.3v2.075L107.273,17.678
	z M132.635,6.842v2.767h3.92l14.986-2.767l-1.499-1.499L132.635,6.842z M160.072,6.842l1.383-3.689L172.292,2l-0.922,2.421
	L160.072,6.842z M212.87,82.466V64.021l8.761-11.528V28.053l-6.917-2.306v-5.082h-6.456l-5.068-5.068V6.842h-10.61l-18.906,5.072
	h-18.906l-33.662,17.984V63.56l10.606,0.461l-0.461,21.673l-27.667,23.517l-5.072-25.362h8.761l7.839-9.684h-10.145l-0.922-10.606
	l-5.533-8.761l-5.764,5.764h-4.842v-7.147h-4.15l-5.072,17.984l-5.072,27.206l-11.528,27.667l-20.75,20.75v10.721l-10.145,1.729
	v3.228l6.293,5.436l-11.058-1.747l-5.226,1.23v5.225l6.456-1.844l15.217,15.217l-12.757-6.917H14.127l-7.992,5.533l6.456,8.608
	l4.611,1.229l3.228-3.228l6.609,7.532h5.226l2.152-5.533h3.075l22.441,9.53l3.382-1.229l-1.844-7.378l8.3-3.382v3.996l7.378,1.23
	l5.841-5.841l9.068,9.069l6.61-7.225l6.456,14.142l5.533,5.225h14.141l20.597,10.453l-11.067,27.974l3.381,7.993h18.445
	l4.611-14.142l-11.067-5.533l-1.844-6.148l16.293-10.453l-5.226-2.459v-4.304l8.3-11.989v-15.985l-14.448-19.982l-0.615-7.685
	l15.371-3.997l10.145,2.767l15.985-8.3l3.382,3.382l5.225-9.222l-7.378-7.378l19.982-17.216l-3.996-20.596l-15.986-0.615V82.466
	H212.87z M31.419,203.741h-2.997l-16.831-5.995l-9.222,1.614v9.684l3.766,3.92l4.534-1.614v-2.767l4.842-1.614l11.297,4.381v2.997
	l5.764,1.844l14.756-7.147l3.92-5.303l-14.295-5.995L31.419,203.741z"/>
</svg>