<?xml version="1.0" encoding="utf-8"?>
<!-- Uploaded to: SVG Repo, www.svgrepo.com, Generator: SVG Repo Mixer Tools -->
<svg fill="#000000" version="1.1" id="Layer_1" xmlns="http://www.w3.org/2000/svg" xmlns:xlink="http://www.w3.org/1999/xlink" 
	 width="800px" height="800px" viewBox="0 0 256 256" enable-background="new 0 0 256 256" xml:space="preserve">
<path d="M109.87,116.298l30.943,30.18c0.47,2.752-0.556,5.965-3.006,8.415c-2.903,2.903-6.888,3.839-9.892,2.611
	c-7.521,9.089-11.713,19.566-12.248,29.285l-0.01-0.01l-1.021,12.134c-0.336,11.281-6.269,21.654-15.823,27.664l-18.817,11.836
	c-1.466,0.922-2.617,2.269-3.299,3.862c-1.628,3.803-0.291,8.227,3.172,10.49l1.89,1.236l-1.282-0.28
	c-6.689-1.459-10.856-8.148-9.219-14.794c0.631-2.563,2.078-4.851,4.123-6.518l15.877-12.951
	c6.089-4.966,9.739-12.318,10.017-20.171l0.795-22.563c-4.949,11.358-12.991,21.128-23.257,28.156l-15.157,10.375
	c-9.397,6.433-15.591,16.582-17.015,27.882l-0.218,1.724c-2.716-13.733,1.981-27.884,12.367-37.269l14.6-13.193
	c7.497-6.774,13.342-15.176,17.085-24.562l2.727-6.647l-6.702,2.674c-9.385,3.743-17.788,9.588-24.562,17.085l-13.193,14.6
	c-9.386,10.387-23.536,15.083-37.269,12.367l1.724-0.218c11.3-1.424,21.448-7.618,27.882-17.015l10.377-15.156
	c6.796-9.928,16.152-17.786,27.032-22.769l-21.751,0.767c-7.853,0.278-15.205,3.929-20.171,10.017l-12.951,15.877
	c-1.667,2.045-3.955,3.492-6.518,4.123c-6.646,1.637-13.335-2.53-14.794-9.219l-0.28-1.282l1.237,1.891
	c2.263,3.463,6.687,4.8,10.49,3.172c1.592-0.682,2.939-1.833,3.862-3.299l11.836-18.817c6.01-9.554,16.383-15.487,27.664-15.823
	l14.852-0.442c9.312-0.992,19.162-5.234,27.728-12.488c-1.181-2.995-0.237-6.935,2.641-9.814
	C104.526,117.228,107.332,116.164,109.87,116.298z M251.441,7.61c-0.277-1.648-1.56-2.876-3.228-3.09
	c-16.987-2.177-31.211-2.914-37.655-2.325c-2.031,0.185-3.578,1.886-3.578,3.926v17.323c-27.577,15.738-52.33,36.172-73.089,60.489
	c0,0-11.77,12.956-19.441,25.82l33.084,32.268c9.097-5.648,24.496-19.95,24.496-19.95c24.336-20.774,44.784-45.55,60.527-73.153
	h17.04c1.984,0,3.65-1.473,3.909-3.441C254.364,38.957,254.243,24.249,251.441,7.61z"/>
</svg>