<?xml version="1.0" encoding="utf-8"?>

<!DOCTYPE svg PUBLIC "-//W3C//DTD SVG 1.1//EN" "http://www.w3.org/Graphics/SVG/1.1/DTD/svg11.dtd">
<!-- Uploaded to: SVG Repo, www.svgrepo.com, Generator: SVG Repo Mixer Tools -->
<svg height="800px" width="800px" version="1.1" id="_x32_" xmlns="http://www.w3.org/2000/svg" xmlns:xlink="http://www.w3.org/1999/xlink" 
	 viewBox="0 0 512 512"  xml:space="preserve">
<style type="text/css">
	.st0{fill:#000000;}
</style>
<g>
	<path class="st0" d="M504.754,220.051c-4.68-11.045-11.44-20.998-19.793-29.351c-8.36-8.352-18.305-15.119-29.35-19.792
		c-11.052-4.673-23.197-7.253-35.941-7.253c-12.758,0-24.902,2.58-35.955,7.253c-11.052,4.673-20.991,11.44-29.35,19.792
		c-14.732,11.948-20.9,26.221-30.637,26.827c-18.471-2.05-32.815-6.773-67.724-6.773c-34.905,0-49.253,4.723-67.72,6.773
		c-9.745-0.606-15.905-14.879-30.64-26.827c-8.356-8.352-18.305-15.119-29.351-19.792c-11.052-4.673-23.194-7.253-35.948-7.253
		c-12.751,0-24.896,2.58-35.944,7.253c-11.049,4.673-20.994,11.44-29.35,19.792c-8.357,8.353-15.124,18.306-19.793,29.351
		C2.587,231.097,0,243.249,0,256c0,12.751,2.587,24.903,7.257,35.948c4.669,11.045,11.436,20.998,19.793,29.35
		c8.356,8.352,18.302,15.119,29.35,19.786c11.048,4.674,23.193,7.26,35.944,7.26c12.755,0,24.897-2.587,35.948-7.26
		c11.046-4.666,20.995-11.433,29.351-19.786c14.735-11.948,20.896-26.221,30.64-26.827c18.468,2.051,32.815,6.767,67.72,6.767
		c34.908,0,49.252-4.716,67.724-6.767c9.737,0.606,15.905,14.88,30.637,26.827c8.36,8.352,18.298,15.119,29.35,19.786
		c11.053,4.674,23.197,7.26,35.955,7.26c12.744,0,24.889-2.587,35.941-7.26c11.046-4.666,20.991-11.433,29.35-19.786
		c8.353-8.352,15.113-18.305,19.793-29.35C509.413,280.903,512,268.751,512,256C512,243.249,509.413,231.097,504.754,220.051z"/>
</g>
</svg>