<?xml version="1.0" encoding="utf-8"?>

<!DOCTYPE svg PUBLIC "-//W3C//DTD SVG 1.1//EN" "http://www.w3.org/Graphics/SVG/1.1/DTD/svg11.dtd">
<!-- Uploaded to: SVG Repo, www.svgrepo.com, Generator: SVG Repo Mixer Tools -->
<svg height="800px" width="800px" version="1.1" id="_x32_" xmlns="http://www.w3.org/2000/svg" xmlns:xlink="http://www.w3.org/1999/xlink" 
	 viewBox="0 0 512 512"  xml:space="preserve">
<style type="text/css">
	.st0{fill:#000000;}
</style>
<g>
	<polygon class="st0" points="332.547,298.405 421.288,180.62 360.928,180.62 312.66,275.507 	"/>
	<polygon class="st0" points="345.156,312.921 367.022,338.113 459.912,338.113 388.306,255.645 	"/>
	<polygon class="st0" points="333.77,192.835 265.242,113.877 265.242,220.869 299.442,260.297 	"/>
	<polygon class="st0" points="342.004,338.113 256,239.039 169.996,338.113 	"/>
	<polygon class="st0" points="246.758,220.869 246.758,113.877 177.804,193.317 212.122,260.779 	"/>
	<polygon class="st0" points="198.905,275.989 150.387,180.62 90.014,180.62 179.102,298.812 	"/>
	<polygon class="st0" points="166.476,313.345 123.313,256.067 52.088,338.113 144.978,338.113 	"/>
	<polygon class="st0" points="476.713,357.485 35.287,357.485 0,398.123 512,398.123 	"/>
</g>
</svg>