<?xml version="1.0" ?>
<!DOCTYPE svg  PUBLIC '-//W3C//DTD SVG 1.1//EN'  'http://www.w3.org/Graphics/SVG/1.1/DTD/svg11.dtd'>
<!-- Uploaded to: SVG Repo, www.svgrepo.com, Generator: SVG Repo Mixer Tools -->
<svg fill="#000000" width="800px" height="800px" viewBox="0 0 50 50" enable-background="new 0 0 50 50" version="1.1" xml:space="preserve" xmlns="http://www.w3.org/2000/svg" xmlns:xlink="http://www.w3.org/1999/xlink">
<g id="Layer_23"/>
<g id="Layer_22"/>
<g id="Layer_21">
<path clip-rule="evenodd" d="M23.868,29.508c3.455,0,6.249,2.796,6.249,6.25c0,3.454-2.795,6.25-6.249,6.25   c-3.458,0-6.25-2.793-6.25-6.25C17.618,32.3,20.409,29.508,23.868,29.508 M37.887,14.981c-4.97-1.698-11.299,2.387-15.306,4.622   C15.997,23.275,9.013,27.89,9.839,36.45c0.664,6.899,7.005,13.015,13.905,13.512c8.607,0.616,13.011-6.472,16.508-13.18   c2.099-4.021,6.021-10.518,4.223-15.408c-0.346-0.94-0.852-1.806-1.481-2.576c1.141-0.931,2.312-1.242,3.739-0.713l0.98-2.673   c-2.572-0.953-4.998-0.374-6.935,1.189C39.925,15.903,38.948,15.343,37.887,14.981z M21.187,6.708   c-1.063-0.508-2.209-0.791-3.371-0.863c0.05-0.607,0.178-1.147,0.394-1.607c0.329-0.701,0.897-1.263,1.751-1.657L18.759,0   c-2.547,1.176-3.849,3.373-4.068,5.92c-0.92,0.129-1.825,0.39-2.676,0.792c-4.751,2.25-6.443,9.586-7.759,13.99   c-2.16,7.224-3.943,15.403,2.616,20.963c0.96,0.813,2.035,1.497,3.192,2.025c-1.336-2.103-2.173-4.511-2.415-7.027   c-0.923-9.574,6.447-14.844,13.859-18.979c1.761-0.982,3.566-1.872,5.399-2.701C25.572,11.617,24.694,8.388,21.187,6.708z" fill-rule="evenodd"/>
</g>
<g id="Layer_20"/>
<g id="Layer_19"/>
<g id="Layer_18"/>
<g id="Layer_17"/>
<g id="Layer_16"/>
<g id="Layer_15"/>
<g id="Layer_14"/>
<g id="Layer_13"/>
<g id="Layer_12"/>
<g id="Layer_11"/>
<g id="Layer_10"/>
<g id="Layer_9"/>
<g id="Layer_8"/>
<g id="Layer_7"/>
<g id="Layer_6"/>
<g id="Layer_5"/>
<g id="Layer_4"/>
<g id="Layer_3"/>
<g id="Layer_2"/>
</svg>