<?xml version="1.0" ?>
<!DOCTYPE svg  PUBLIC '-//W3C//DTD SVG 1.1//EN'  'http://www.w3.org/Graphics/SVG/1.1/DTD/svg11.dtd'>
<!-- Uploaded to: SVG Repo, www.svgrepo.com, Generator: SVG Repo Mixer Tools -->
<svg fill="#000000" width="800px" height="800px" viewBox="0 0 50 50" enable-background="new 0 0 50 50" version="1.1" xml:space="preserve" xmlns="http://www.w3.org/2000/svg" xmlns:xlink="http://www.w3.org/1999/xlink">
<g id="Layer_23">
<path clip-rule="evenodd" d="M13.414,29.171c0.005-1.289,0.061-2.37,0.438-3.607   c1.14-3.754,2.118-5.339,1.564-9.56c-1.595,1.218-3.047,2.663-4.465,4.08L9.53,19.263c0.69-2.122,2.607-4.533,4.553-5.808   c-0.753-2.903-2.251-4.601-4.392-6.63C8.448,7.844,7.376,8.661,6.608,10.15c1.763,1.336,3.413,3.51,4.042,5.446l-1.422,0.821   c-1.411-1.411-2.852-2.845-4.44-4.061c-0.462,1.065-0.64,2.159-0.602,3.273c2.692,1.634,5.128,3.714,6.142,6.829L8.907,23.28   c-1.564-1.564-3.099-3.084-4.89-4.393c-0.409,2.287,0.369,4.557,1.142,6.68c0.437,1.203,0.644,2.323,0.647,3.604l0.073,19.235   c2.842,2.169,4.601,2.073,7.465,0.027L13.414,29.171z M36.327,29.171l0.073,19.235c2.842,2.169,4.601,2.073,7.465,0.027   l0.07-19.262c0.005-1.289,0.062-2.37,0.438-3.607c1.14-3.754,2.118-5.339,1.564-9.56c-1.595,1.218-3.047,2.663-4.465,4.08   l-1.422-0.821c0.69-2.122,2.607-4.533,4.553-5.808c-0.753-2.903-2.251-4.601-4.392-6.63c-1.243,1.019-2.315,1.836-3.083,3.325   c1.762,1.336,3.413,3.51,4.042,5.446l-1.422,0.821c-1.411-1.411-2.852-2.845-4.44-4.061c-0.462,1.065-0.64,2.159-0.602,3.273   c2.692,1.634,5.128,3.714,6.142,6.829l-1.422,0.821c-1.564-1.564-3.099-3.084-4.89-4.393c-0.409,2.287,0.368,4.557,1.142,6.68   C36.117,26.77,36.323,27.89,36.327,29.171z M29.384,25.854c0.006-1.992,0.142-3.413,0.866-5.283   c1.402-3.611,1.997-6.441,1.45-10.329c-1.771,1.172-3.564,3.015-5.076,4.528l-1.422-0.821c0.749-2.305,2.945-4.948,5.055-6.111   C29.465,4.43,27.753,2.373,25.253,0c-1.418,1.164-2.65,2.154-3.466,3.848c1.832,1.32,3.576,3.58,4.227,5.584l-1.422,0.821   c-1.494-1.494-3.02-3.018-4.724-4.273c-0.66,1.384-0.877,2.762-0.797,4.284c2.727,1.505,5.154,3.817,6.356,7.005l-1.422,0.821   c-1.624-1.624-3.207-3.19-5.097-4.513c-0.509,2.37,0.139,4.748,0.925,6.996c0.655,1.871,1.117,3.217,1.122,5.279l0.084,22.407   c3.109,2.369,5.129,2.265,8.263,0.027L29.384,25.854z" fill-rule="evenodd"/>
</g>
<g id="Layer_22"/>
<g id="Layer_21"/>
<g id="Layer_20"/>
<g id="Layer_19"/>
<g id="Layer_18"/>
<g id="Layer_17"/>
<g id="Layer_16"/>
<g id="Layer_15"/>
<g id="Layer_14"/>
<g id="Layer_13"/>
<g id="Layer_12"/>
<g id="Layer_11"/>
<g id="Layer_10"/>
<g id="Layer_9"/>
<g id="Layer_8"/>
<g id="Layer_7"/>
<g id="Layer_6"/>
<g id="Layer_5"/>
<g id="Layer_4"/>
<g id="Layer_3"/>
<g id="Layer_2"/>
</svg>