<?xml version="1.0" ?>
<!DOCTYPE svg  PUBLIC '-//W3C//DTD SVG 1.1//EN'  'http://www.w3.org/Graphics/SVG/1.1/DTD/svg11.dtd'>
<!-- Uploaded to: SVG Repo, www.svgrepo.com, Generator: SVG Repo Mixer Tools -->
<svg fill="#000000" width="800px" height="800px" viewBox="0 0 50 50" enable-background="new 0 0 50 50" version="1.1" xml:space="preserve" xmlns="http://www.w3.org/2000/svg" xmlns:xlink="http://www.w3.org/1999/xlink">
<g id="Layer_23"/>
<g id="Layer_22"/>
<g id="Layer_21"/>
<g id="Layer_20"/>
<g id="Layer_19"/>
<g id="Layer_18"/>
<g id="Layer_17">
<path clip-rule="evenodd" d="M21.591,41.853c0-1.313,1.064-2.377,2.377-2.377c1.313,0,2.376,1.065,2.376,2.377   c0,1.313-1.064,2.377-2.376,2.377C22.656,44.23,21.591,43.166,21.591,41.853 M38.796,30.518c0.423,1.468-0.425,3.001-1.893,3.425   c-1.468,0.423-3.003-0.424-3.425-1.893c-0.423-1.468,0.425-3.002,1.893-3.426C36.839,28.202,38.373,29.049,38.796,30.518z    M40.062,22.549c1.262-0.364,2.579,0.365,2.942,1.625c0.364,1.262-0.364,2.579-1.626,2.943c-1.261,0.363-2.579-0.365-2.942-1.626   C38.072,24.23,38.8,22.912,40.062,22.549z M27.392,36.924c0-1.528,1.239-2.767,2.767-2.767c1.529,0,2.768,1.239,2.768,2.767   c0,1.529-1.239,2.768-2.768,2.768C28.631,39.691,27.392,38.453,27.392,36.924z M47.088,6.833   c-11.35,14.763-23.49,27.754-37.235,40.298c8.212,7.225,24.006-0.716,29.991-7.107C48.893,30.361,49.801,19.137,47.088,6.833z    M26.832,0c-7.1,17.363-15.238,32.84-25.265,48.699c2.921,1.423,4.313,1.656,7.648,0.8l-2.658-2.338   c9.022-8.233,17.581-16.497,25.696-25.661C32.972,13.124,30.603,7.172,26.832,0z" fill-rule="evenodd"/>
</g>
<g id="Layer_16"/>
<g id="Layer_15"/>
<g id="Layer_14"/>
<g id="Layer_13"/>
<g id="Layer_12"/>
<g id="Layer_11"/>
<g id="Layer_10"/>
<g id="Layer_9"/>
<g id="Layer_8"/>
<g id="Layer_7"/>
<g id="Layer_6"/>
<g id="Layer_5"/>
<g id="Layer_4"/>
<g id="Layer_3"/>
<g id="Layer_2"/>
</svg>