<?xml version="1.0" ?>
<!DOCTYPE svg  PUBLIC '-//W3C//DTD SVG 1.1//EN'  'http://www.w3.org/Graphics/SVG/1.1/DTD/svg11.dtd'>
<!-- Uploaded to: SVG Repo, www.svgrepo.com, Generator: SVG Repo Mixer Tools -->
<svg fill="#000000" width="800px" height="800px" viewBox="0 0 50 50" enable-background="new 0 0 50 50" version="1.1" xml:space="preserve" xmlns="http://www.w3.org/2000/svg" xmlns:xlink="http://www.w3.org/1999/xlink">
<g id="Layer_23"/>
<g id="Layer_22"/>
<g id="Layer_21"/>
<g id="Layer_20"/>
<g id="Layer_19"/>
<g id="Layer_18"/>
<g id="Layer_17"/>
<g id="Layer_16"/>
<g id="Layer_15"/>
<g id="Layer_14"/>
<g id="Layer_13"/>
<g id="Layer_12">
<path clip-rule="evenodd" d="M32.716,22.12c-4.705,2.363-9.431,2.514-13.756-0.74l1.527-2.035   c3.535,2.66,7.267,2.422,11.092,0.501L32.716,22.12z M23.587,50H26.4c0.851-3.693,3.421-6.316,5.949-8.896   c3.184-3.249,5.718-6.062,6.735-10.715c-3.877,2.153-7.956,2.746-12.22,1.391l0.768-2.424c4.013,1.275,8.328,0.303,11.806-1.98   c0.088-4.115-1.642-8.127-4.826-10.762c-1.877-1.554-4.127-2.541-6.519-2.976c0.243-1.337,0.719-2.86,1.173-4.144   c0.861-2.433,1.955-4.62,3.13-6.9l-2.566-1.322c-1.276,2.477-2.452,4.883-3.379,7.518C26.191,5.831,25.796,2.934,25.354,0   l-2.859,0.43c0.449,2.986,0.854,5.934,1.114,8.947c-1.117-2.899-2.608-5.499-4.222-8.144l-2.463,1.503   c1.368,2.242,2.632,4.389,3.65,6.831c0.559,1.341,1.02,2.695,1.361,4.064c-2.583,0.465-4.792,1.519-6.56,2.983   c-2.543,2.107-4.158,5.066-4.66,8.316c1.768,1.255,5.178,1.973,7.146,2.274l-0.379,2.523c-2.319-0.355-4.814-0.889-6.923-2.01   c0.067,1.693,0.424,3.429,1.095,5.141c2.329,1.37,6.326,2.075,8.88,2.201l-0.119,2.543c-2.321-0.115-4.725-0.45-6.917-1.254   c1.181,1.749,2.669,3.255,4.14,4.757C20.166,43.684,22.737,46.308,23.587,50z" fill-rule="evenodd"/>
</g>
<g id="Layer_11"/>
<g id="Layer_10"/>
<g id="Layer_9"/>
<g id="Layer_8"/>
<g id="Layer_7"/>
<g id="Layer_6"/>
<g id="Layer_5"/>
<g id="Layer_4"/>
<g id="Layer_3"/>
<g id="Layer_2"/>
</svg>