<?xml version="1.0" ?>
<!DOCTYPE svg  PUBLIC '-//W3C//DTD SVG 1.1//EN'  'http://www.w3.org/Graphics/SVG/1.1/DTD/svg11.dtd'>
<!-- Uploaded to: SVG Repo, www.svgrepo.com, Generator: SVG Repo Mixer Tools -->
<svg fill="#000000" width="800px" height="800px" viewBox="0 0 50 50" enable-background="new 0 0 50 50" version="1.1" xml:space="preserve" xmlns="http://www.w3.org/2000/svg" xmlns:xlink="http://www.w3.org/1999/xlink">
<g id="Layer_23"/>
<g id="Layer_22"/>
<g id="Layer_21"/>
<g id="Layer_20"/>
<g id="Layer_19"/>
<g id="Layer_18"/>
<g id="Layer_17"/>
<g id="Layer_16"/>
<g id="Layer_15"/>
<g id="Layer_14"/>
<g id="Layer_13"/>
<g id="Layer_12"/>
<g id="Layer_11"/>
<g id="Layer_10">
<path clip-rule="evenodd" d="M20.495,9.409c2.514-1.258,5.411-1.245,7.916,0.031   c-0.329-2.85-0.109-5.442,2.804-6.719L30.648,0h-4.999l-1.077,0.499C21.983,3.516,21.067,6.469,20.495,9.409 M24.422,10.98   c-4.866,0-7.66,5.193-7.66,9.557h-2.509c0-3.755,1.518-7.607,4.484-9.994C11.695,8.531,3.932,14.068,5.683,21.842l4.339,19.237   c0.654,2.904,2.01,5.215,3.743,6.753c3.391,3.008,7.831,2.838,11.262-0.204c3.405,2.97,7.851,3.177,11.259,0.11   c1.705-1.535,3.04-3.831,3.689-6.708l4.342-19.237c1.843-8.169-6.828-13.73-13.92-11.007c2.778,2.406,4.194,6.119,4.194,9.752   h-2.509C32.082,16.173,29.288,10.98,24.422,10.98z" fill-rule="evenodd"/>
</g>
<g id="Layer_9"/>
<g id="Layer_8"/>
<g id="Layer_7"/>
<g id="Layer_6"/>
<g id="Layer_5"/>
<g id="Layer_4"/>
<g id="Layer_3"/>
<g id="Layer_2"/>
</svg>