<?xml version="1.0" ?>
<!DOCTYPE svg  PUBLIC '-//W3C//DTD SVG 1.1//EN'  'http://www.w3.org/Graphics/SVG/1.1/DTD/svg11.dtd'>
<!-- Uploaded to: SVG Repo, www.svgrepo.com, Generator: SVG Repo Mixer Tools -->
<svg fill="#000000" width="800px" height="800px" viewBox="0 0 50 50" enable-background="new 0 0 50 50" version="1.1" xml:space="preserve" xmlns="http://www.w3.org/2000/svg" xmlns:xlink="http://www.w3.org/1999/xlink">
<g id="Layer_23"/>
<g id="Layer_22"/>
<g id="Layer_21"/>
<g id="Layer_20"/>
<g id="Layer_19"/>
<g id="Layer_18"/>
<g id="Layer_17"/>
<g id="Layer_16"/>
<g id="Layer_15"/>
<g id="Layer_14"/>
<g id="Layer_13"/>
<g id="Layer_12"/>
<g id="Layer_11"/>
<g id="Layer_10"/>
<g id="Layer_9"/>
<g id="Layer_8"/>
<g id="Layer_7"/>
<g id="Layer_6"/>
<g id="Layer_5"/>
<g id="Layer_4"/>
<g id="Layer_3">
<path clip-rule="evenodd" d="M30.502,28.635c-3.431-2.658-7.09-5.021-10.522-6.696   C12.544,18.321,7.408,17.595,0,20.356c1.582,1.625,3.1,3.193,4.539,4.953c-0.265,11.549,8.985,21.035,20.535,21.035   c6.238,0,12.069-2.801,15.983-7.636C37.918,35.079,34.736,31.914,30.502,28.635 M27.823,22.415   c1.663,1.092,3.276,2.256,4.822,3.454c3.99,3.09,7.278,6.294,10.426,9.847c1.893-3.43,2.688-7.098,2.514-11.002L50,19.684   c-3.323-1.599-8.1-2.272-12.822-0.976C33.547,19.653,30.511,20.935,27.823,22.415z M24.434,20.336   c3.569-2.155,7.285-3.758,11.357-4.878c2.476-0.679,4.782-0.988,7.356-0.89c-0.394-1.67-1.55-3.083-3.119-3.786   c-0.854-2.735-3.671-4.378-6.48-3.73C32.101,4.008,28.361,3,25.6,4.792c-2.678-2.06-6.606-1.24-8.211,1.816   c-2.952-0.406-5.647,1.474-6.221,4.394c-2.432,0.135-4.484,1.877-5.047,4.236c5.383-0.347,10.518,1.181,15.391,3.554   C22.498,19.273,23.472,19.789,24.434,20.336z" fill-rule="evenodd"/>
</g>
<g id="Layer_2"/>
</svg>