<?xml version="1.0" ?>
<!DOCTYPE svg  PUBLIC '-//W3C//DTD SVG 1.1//EN'  'http://www.w3.org/Graphics/SVG/1.1/DTD/svg11.dtd'>
<!-- Uploaded to: SVG Repo, www.svgrepo.com, Generator: SVG Repo Mixer Tools -->
<svg fill="#000000" width="800px" height="800px" viewBox="0 0 50 50" enable-background="new 0 0 50 50" version="1.1" xml:space="preserve" xmlns="http://www.w3.org/2000/svg" xmlns:xlink="http://www.w3.org/1999/xlink">
<g id="Layer_23"/>
<g id="Layer_22"/>
<g id="Layer_21"/>
<g id="Layer_20">
<path clip-rule="evenodd" d="M14.276,10.889l-0.315,2.915c-1.426-2.441-2.709-4.766-3.713-8.543   c2.509,1.792,4.666,4.262,6.488,6.726L14.276,10.889z M30.903,39.156l0.767,2.391c-3.446,1.112-7.541,1.776-11.063,0.75   c-3.897-1.136-5.843-3.76-6.934-7.521l2.43-0.63c0.826,2.841,2.235,4.877,5.202,5.741C24.313,40.763,27.955,40.109,30.903,39.156z    M38.87,18.644c-4.819-4.741-11.713-4.565-17.929-5.595c-1.334-2.031-2.872-4.151-4.616-6.082C12.974,3.259,10.616,1.955,6.258,0   c0.702,3.765,1.326,7.231,2.9,10.786c1.041,2.355,2.427,4.582,3.715,6.813c-2.207,5.95-5.885,11.872-4.175,18.466   c2.625,10.158,11.799,13.384,21.332,11.261l-0.349,2.239L32.488,50l0.542-3.489l0.143-0.045l1.492,2.584l2.463-1.427l-1.492-2.584   l0.109-0.098l3.298,1.276l1.025-2.652l-2.11-0.817C44.558,35.558,46.349,25.995,38.87,18.644z" fill-rule="evenodd"/>
</g>
<g id="Layer_19"/>
<g id="Layer_18"/>
<g id="Layer_17"/>
<g id="Layer_16"/>
<g id="Layer_15"/>
<g id="Layer_14"/>
<g id="Layer_13"/>
<g id="Layer_12"/>
<g id="Layer_11"/>
<g id="Layer_10"/>
<g id="Layer_9"/>
<g id="Layer_8"/>
<g id="Layer_7"/>
<g id="Layer_6"/>
<g id="Layer_5"/>
<g id="Layer_4"/>
<g id="Layer_3"/>
<g id="Layer_2"/>
</svg>