<?xml version="1.0" ?>
<!DOCTYPE svg  PUBLIC '-//W3C//DTD SVG 1.1//EN'  'http://www.w3.org/Graphics/SVG/1.1/DTD/svg11.dtd'>
<!-- Uploaded to: SVG Repo, www.svgrepo.com, Generator: SVG Repo Mixer Tools -->
<svg fill="#000000" width="800px" height="800px" viewBox="0 0 50 50" enable-background="new 0 0 50 50" version="1.1" xml:space="preserve" xmlns="http://www.w3.org/2000/svg" xmlns:xlink="http://www.w3.org/1999/xlink">
<g id="Layer_13"/>
<g id="Layer_12"/>
<g id="Layer_11"/>
<g id="Layer_10">
<path clip-rule="evenodd" d="M35.646,16.908c-2.423-2.537-4.51-5.658-5.544-9.124   c4.045,1.126,7.359,1.99,10.16,5.423c1.732,2.123,3.237,5.22,4.406,9.918C42.092,22.268,38.647,20.048,35.646,16.908    M14.392,17.362c0.029,0.764-0.567,1.409-1.332,1.438c-0.764,0.029-1.409-0.567-1.438-1.332c-0.029-0.765,0.567-1.409,1.331-1.439   C13.718,16,14.362,16.596,14.392,17.362z M15.935,21.368c0.029,0.765-0.567,1.409-1.332,1.438c-0.764,0.03-1.409-0.566-1.438-1.331   c-0.03-0.764,0.566-1.408,1.332-1.438C15.261,20.007,15.905,20.603,15.935,21.368z M17.945,14.559   c0.03,0.765-0.567,1.409-1.331,1.438c-0.766,0.029-1.409-0.567-1.438-1.331c-0.029-0.765,0.567-1.409,1.331-1.438   C17.272,13.198,17.916,13.794,17.945,14.559z M19.242,18.574c0.029,0.765-0.567,1.409-1.331,1.439   c-0.765,0.029-1.409-0.567-1.439-1.332c-0.029-0.765,0.567-1.409,1.332-1.438C18.569,17.213,19.213,17.809,19.242,18.574z    M11.249,20.754c0.03,0.765-0.566,1.409-1.331,1.438c-0.765,0.03-1.409-0.567-1.439-1.332c-0.029-0.765,0.567-1.408,1.332-1.438   C10.576,19.393,11.221,19.99,11.249,20.754z M27.061,7.559c-0.932-0.182-1.877-0.302-2.824-0.36c0.109-0.91,0.246-1.859,0.474-2.74   c0.45,0.931,1.078,1.76,2.172,2.291L27.061,7.559z M12.523,24.844c0.029,0.765-0.567,1.409-1.332,1.438   c-0.765,0.03-1.409-0.566-1.438-1.331c-0.029-0.765,0.567-1.409,1.332-1.438C11.849,23.484,12.493,24.08,12.523,24.844z    M7.76,13.438c-8.327,8.325-8.326,21.992,0,30.318c8.325,8.327,21.991,8.325,30.317,0c4.69-4.691,6.928-11.237,6.117-17.804   c1.447,0.451,2.775,0.601,4.29,0.54c-0.444-1.679-0.813-3.291-1.253-4.946C43.8,8.618,37.882,6.969,31.533,5.201   c-1.097-0.305-3.244-0.671-3.917-1.534c-0.701-0.894-0.99-2.48-1.53-3.561L23.571,0c-1.529,2.495-1.912,4.395-2.23,7.217   C16.05,7.602,11.291,9.907,7.76,13.438z" fill-rule="evenodd"/>
</g>
<g id="Layer_9"/>
<g id="Layer_8"/>
<g id="Layer_7"/>
<g id="Layer_6"/>
<g id="Layer_5"/>
<g id="Layer_4"/>
<g id="Layer_3"/>
<g id="Layer_2"/>
</svg>